<mxfile host="Electron" agent="Mozilla/5.0 (X11; Linux x86_64) AppleWebKit/537.36 (KHTML, like Gecko) draw.io/24.7.17 Chrome/128.0.6613.36 Electron/32.0.1 Safari/537.36" version="24.7.17">
  <diagram name="Страница — 1" id="1QZKaAc0IbyAtHh7y2KP">
    <mxGraphModel dx="1114" dy="776" grid="1" gridSize="10" guides="1" tooltips="1" connect="1" arrows="1" fold="1" page="1" pageScale="1" pageWidth="827" pageHeight="1169" math="0" shadow="0">
      <root>
        <mxCell id="0" />
        <mxCell id="1" parent="0" />
        <mxCell id="JkYZhTmO3h_u896eLbRm-19" value="" style="rounded=0;whiteSpace=wrap;html=1;" vertex="1" parent="1">
          <mxGeometry x="40" y="40" width="760" height="480" as="geometry" />
        </mxCell>
        <mxCell id="JkYZhTmO3h_u896eLbRm-8" value="7" style="rounded=0;orthogonalLoop=1;jettySize=auto;html=1;endArrow=none;endFill=0;strokeWidth=2;fontSize=18;verticalAlign=bottom;labelBackgroundColor=none;spacingTop=3;spacingBottom=0;spacing=2;spacingRight=5;" edge="1" parent="1" source="JkYZhTmO3h_u896eLbRm-1" target="JkYZhTmO3h_u896eLbRm-6">
          <mxGeometry relative="1" as="geometry" />
        </mxCell>
        <mxCell id="JkYZhTmO3h_u896eLbRm-13" value="9" style="rounded=0;orthogonalLoop=1;jettySize=auto;html=1;endArrow=none;endFill=0;strokeWidth=2;fontSize=18;verticalAlign=bottom;labelBackgroundColor=none;spacingTop=3;spacingBottom=3;spacing=5;spacingRight=5;" edge="1" parent="1" source="JkYZhTmO3h_u896eLbRm-1" target="JkYZhTmO3h_u896eLbRm-5">
          <mxGeometry relative="1" as="geometry" />
        </mxCell>
        <mxCell id="JkYZhTmO3h_u896eLbRm-1" value="0" style="ellipse;whiteSpace=wrap;html=1;aspect=fixed;strokeWidth=3;fontSize=25;" vertex="1" parent="1">
          <mxGeometry x="100" y="380" width="40" height="40" as="geometry" />
        </mxCell>
        <mxCell id="JkYZhTmO3h_u896eLbRm-11" value="9" style="rounded=0;orthogonalLoop=1;jettySize=auto;html=1;endArrow=none;endFill=0;strokeWidth=2;fontSize=18;verticalAlign=bottom;labelBackgroundColor=none;spacingTop=3;spacingBottom=3;spacing=5;spacingRight=5;" edge="1" parent="1" source="JkYZhTmO3h_u896eLbRm-2" target="JkYZhTmO3h_u896eLbRm-3">
          <mxGeometry relative="1" as="geometry" />
        </mxCell>
        <mxCell id="JkYZhTmO3h_u896eLbRm-2" value="4" style="ellipse;whiteSpace=wrap;html=1;aspect=fixed;strokeWidth=3;fontSize=25;" vertex="1" parent="1">
          <mxGeometry x="220" y="100" width="40" height="40" as="geometry" />
        </mxCell>
        <mxCell id="JkYZhTmO3h_u896eLbRm-12" value="14" style="rounded=0;orthogonalLoop=1;jettySize=auto;html=1;endArrow=none;endFill=0;strokeWidth=2;fontSize=18;verticalAlign=middle;labelBackgroundColor=none;labelPosition=left;verticalLabelPosition=middle;align=right;spacingTop=3;spacingBottom=3;spacing=5;spacingRight=5;" edge="1" parent="1" source="JkYZhTmO3h_u896eLbRm-3" target="JkYZhTmO3h_u896eLbRm-1">
          <mxGeometry relative="1" as="geometry" />
        </mxCell>
        <mxCell id="JkYZhTmO3h_u896eLbRm-3" value="5" style="ellipse;whiteSpace=wrap;html=1;aspect=fixed;strokeWidth=3;fontSize=25;" vertex="1" parent="1">
          <mxGeometry x="60" y="260" width="40" height="40" as="geometry" />
        </mxCell>
        <mxCell id="JkYZhTmO3h_u896eLbRm-10" value="6" style="rounded=0;orthogonalLoop=1;jettySize=auto;html=1;endArrow=none;endFill=0;strokeWidth=2;fontSize=18;verticalAlign=bottom;labelBackgroundColor=none;spacingTop=3;spacingBottom=3;spacing=5;spacingRight=5;" edge="1" parent="1" source="JkYZhTmO3h_u896eLbRm-4" target="JkYZhTmO3h_u896eLbRm-2">
          <mxGeometry relative="1" as="geometry" />
        </mxCell>
        <mxCell id="JkYZhTmO3h_u896eLbRm-4" value="3" style="ellipse;whiteSpace=wrap;html=1;aspect=fixed;strokeWidth=3;fontSize=25;" vertex="1" parent="1">
          <mxGeometry x="380" y="260" width="40" height="40" as="geometry" />
        </mxCell>
        <mxCell id="JkYZhTmO3h_u896eLbRm-15" value="2" style="rounded=0;orthogonalLoop=1;jettySize=auto;html=1;endArrow=none;endFill=0;strokeWidth=2;fontSize=18;verticalAlign=bottom;labelBackgroundColor=none;spacingTop=3;spacingBottom=0;spacing=2;spacingRight=5;" edge="1" parent="1" source="JkYZhTmO3h_u896eLbRm-5" target="JkYZhTmO3h_u896eLbRm-3">
          <mxGeometry relative="1" as="geometry" />
        </mxCell>
        <mxCell id="JkYZhTmO3h_u896eLbRm-16" value="11" style="rounded=0;orthogonalLoop=1;jettySize=auto;html=1;endArrow=none;endFill=0;strokeWidth=2;fontSize=18;verticalAlign=bottom;labelBackgroundColor=none;spacingTop=3;spacingBottom=0;spacing=2;spacingRight=5;" edge="1" parent="1" source="JkYZhTmO3h_u896eLbRm-5" target="JkYZhTmO3h_u896eLbRm-4">
          <mxGeometry relative="1" as="geometry" />
        </mxCell>
        <mxCell id="JkYZhTmO3h_u896eLbRm-5" value="2" style="ellipse;whiteSpace=wrap;html=1;aspect=fixed;strokeWidth=3;fontSize=25;" vertex="1" parent="1">
          <mxGeometry x="220" y="220" width="40" height="40" as="geometry" />
        </mxCell>
        <mxCell id="JkYZhTmO3h_u896eLbRm-9" value="15" style="rounded=0;orthogonalLoop=1;jettySize=auto;html=1;endArrow=none;endFill=0;strokeWidth=2;fontSize=18;verticalAlign=middle;labelBackgroundColor=none;labelPosition=right;verticalLabelPosition=middle;align=left;spacingTop=3;spacingBottom=3;spacing=5;spacingRight=5;" edge="1" parent="1" source="JkYZhTmO3h_u896eLbRm-6" target="JkYZhTmO3h_u896eLbRm-4">
          <mxGeometry relative="1" as="geometry" />
        </mxCell>
        <mxCell id="JkYZhTmO3h_u896eLbRm-14" value="10" style="rounded=0;orthogonalLoop=1;jettySize=auto;html=1;endArrow=none;endFill=0;strokeWidth=2;fontSize=18;verticalAlign=bottom;labelBackgroundColor=none;spacingTop=3;spacingBottom=3;spacing=5;spacingRight=5;" edge="1" parent="1" source="JkYZhTmO3h_u896eLbRm-6" target="JkYZhTmO3h_u896eLbRm-5">
          <mxGeometry relative="1" as="geometry" />
        </mxCell>
        <mxCell id="JkYZhTmO3h_u896eLbRm-6" value="1" style="ellipse;whiteSpace=wrap;html=1;aspect=fixed;strokeWidth=3;fontSize=25;" vertex="1" parent="1">
          <mxGeometry x="340" y="380" width="40" height="40" as="geometry" />
        </mxCell>
        <mxCell id="JkYZhTmO3h_u896eLbRm-17" value="&lt;div&gt;&amp;nbsp; | 0&amp;nbsp; &amp;nbsp;1&amp;nbsp; &amp;nbsp;2&amp;nbsp; &amp;nbsp;3&amp;nbsp; &amp;nbsp;4&amp;nbsp; &amp;nbsp;5&lt;/div&gt;&lt;div&gt;--+-----------------------&lt;/div&gt;0 | 0&amp;nbsp; &amp;nbsp;7&amp;nbsp; &amp;nbsp;9&amp;nbsp; &amp;nbsp;0&amp;nbsp; &amp;nbsp;0&amp;nbsp; &amp;nbsp;14&lt;div&gt;&lt;span style=&quot;background-color: initial;&quot;&gt;1 | 7&lt;/span&gt;&lt;span style=&quot;background-color: initial;&quot;&gt;&amp;nbsp; &amp;nbsp;0&amp;nbsp; &amp;nbsp;10&amp;nbsp; 15&amp;nbsp; 0&amp;nbsp; &amp;nbsp;0&lt;/span&gt;&lt;/div&gt;&lt;div&gt;&lt;span style=&quot;background-color: initial;&quot;&gt;2 | 9&lt;/span&gt;&lt;span style=&quot;background-color: initial;&quot;&gt;&amp;nbsp; &amp;nbsp;10&amp;nbsp; 0&amp;nbsp; &amp;nbsp;11&amp;nbsp; 0&amp;nbsp; &amp;nbsp;2&lt;/span&gt;&lt;/div&gt;&lt;div&gt;&lt;span style=&quot;background-color: initial;&quot;&gt;3 |&amp;nbsp;&lt;/span&gt;&lt;span style=&quot;background-color: initial;&quot;&gt;0&amp;nbsp; &amp;nbsp;15&amp;nbsp; 11&amp;nbsp; 0&amp;nbsp; &amp;nbsp;6&amp;nbsp; &amp;nbsp;0&lt;/span&gt;&lt;/div&gt;&lt;div&gt;&lt;span style=&quot;background-color: initial;&quot;&gt;4 | 0&amp;nbsp;&lt;/span&gt;&lt;span style=&quot;background-color: initial;&quot;&gt;&amp;nbsp; 0&amp;nbsp; &amp;nbsp;0&amp;nbsp; &amp;nbsp;6&amp;nbsp; &amp;nbsp;0&amp;nbsp; &amp;nbsp;9&lt;/span&gt;&lt;/div&gt;&lt;div&gt;&lt;span style=&quot;background-color: initial;&quot;&gt;5 | 14&lt;/span&gt;&lt;span style=&quot;background-color: initial;&quot;&gt;&amp;nbsp; 0&amp;nbsp; &amp;nbsp;2&amp;nbsp; &amp;nbsp;0&amp;nbsp; &amp;nbsp;9&amp;nbsp; &amp;nbsp;0&lt;/span&gt;&lt;/div&gt;" style="text;html=1;align=left;verticalAlign=middle;resizable=0;points=[];autosize=1;strokeColor=none;fillColor=none;fontSize=20;fontFamily=Courier New;fontStyle=1" vertex="1" parent="1">
          <mxGeometry x="449" y="192" width="340" height="210" as="geometry" />
        </mxCell>
      </root>
    </mxGraphModel>
  </diagram>
</mxfile>
